<svg width="15" height="12" viewBox="0 0 15 12" fill="none" xmlns="http://www.w3.org/2000/svg">
<path opacity="0.5" d="M7.33333 0.51416C4 0.51416 1.15333 2.76823 0 5.95001C1.15333 9.1318 4 11.3859 7.33333 11.3859C10.6667 11.3859 13.5133 9.1318 14.6667 5.95001C13.5133 2.76823 10.6667 0.51416 7.33333 0.51416ZM7.33333 9.57391C5.49333 9.57391 4 7.95041 4 5.95001C4 3.94962 5.49333 2.32611 7.33333 2.32611C9.17333 2.32611 10.6667 3.94962 10.6667 5.95001C10.6667 7.95041 9.17333 9.57391 7.33333 9.57391ZM7.33333 3.77567C6.22666 3.77567 5.33333 4.74688 5.33333 5.95001C5.33333 7.15315 6.22666 8.12435 7.33333 8.12435C8.43999 8.12435 9.33333 7.15315 9.33333 5.95001C9.33333 4.74688 8.43999 3.77567 7.33333 3.77567Z" fill="#858585"/>
</svg>
