<svg width="58" height="22" viewBox="0 0 58 22" fill="none" xmlns="http://www.w3.org/2000/svg">
<path d="M1.832 17.144C1.48 17.144 1.184 17.024 0.944 16.784C0.704 16.544 0.584 16.248 0.584 15.896C0.584 15.544 0.704 15.248 0.944 15.008C1.184 14.768 1.48 14.648 1.832 14.648C2.184 14.648 2.48 14.768 2.72 15.008C2.96 15.248 3.08 15.544 3.08 15.896C3.08 16.248 2.96 16.544 2.72 16.784C2.48 17.024 2.184 17.144 1.832 17.144ZM15.0639 17H7.04788V0.199999H14.3199C15.8079 0.199999 16.9839 0.567999 17.8479 1.304C18.7119 2.024 19.1439 3.016 19.1439 4.28C19.1439 5.144 18.9439 5.888 18.5439 6.512C18.1599 7.136 17.6239 7.576 16.9359 7.832C18.0559 8.008 18.9439 8.496 19.5999 9.296C20.2559 10.096 20.5839 11.104 20.5839 12.32C20.5839 13.744 20.0879 14.88 19.0959 15.728C18.1039 16.576 16.7599 17 15.0639 17ZM8.82388 8.864V15.392H14.7519C15.9999 15.392 16.9679 15.104 17.6559 14.528C18.3439 13.952 18.6879 13.144 18.6879 12.104C18.6879 11.08 18.3439 10.288 17.6559 9.728C16.9679 9.152 15.9999 8.864 14.7519 8.864H8.82388ZM8.82388 1.808V7.304H14.0319C15.1039 7.304 15.9279 7.072 16.5039 6.608C17.0959 6.144 17.3919 5.472 17.3919 4.592C17.3919 3.696 17.0959 3.008 16.5039 2.528C15.9279 2.048 15.1039 1.808 14.0319 1.808H8.82388ZM26.7899 17.288C25.9899 17.288 25.3419 17.056 24.8459 16.592C24.3659 16.128 24.1259 15.408 24.1259 14.432V0.199999H25.8539V14.024C25.8539 15.16 26.3579 15.728 27.3659 15.728C27.7659 15.728 28.1419 15.624 28.4939 15.416V16.952C28.0779 17.176 27.5099 17.288 26.7899 17.288ZM32.0458 6.92C33.2138 5.72 34.7178 5.12 36.5578 5.12C38.3978 5.12 39.9018 5.72 41.0698 6.92C42.2378 8.088 42.8218 9.52 42.8218 11.216C42.8218 12.912 42.2378 14.344 41.0698 15.512C39.8858 16.696 38.3818 17.288 36.5578 17.288C34.7338 17.288 33.2298 16.696 32.0458 15.512C30.8778 14.344 30.2938 12.912 30.2938 11.216C30.2938 9.52 30.8778 8.088 32.0458 6.92ZM41.0458 11.216C41.0458 9.936 40.6218 8.856 39.7738 7.976C38.9258 7.112 37.8538 6.68 36.5578 6.68C35.2618 6.68 34.1898 7.112 33.3418 7.976C32.4938 8.856 32.0698 9.936 32.0698 11.216C32.0698 12.48 32.4938 13.552 33.3418 14.432C34.1898 15.296 35.2618 15.728 36.5578 15.728C37.8538 15.728 38.9258 15.296 39.7738 14.432C40.6218 13.552 41.0458 12.48 41.0458 11.216ZM55.52 16.256V15.032C54.48 16.408 52.984 17.096 51.032 17.096C49.32 17.096 47.92 16.52 46.832 15.368C45.744 14.184 45.2 12.768 45.2 11.12C45.2 9.472 45.744 8.056 46.832 6.872C47.904 5.704 49.304 5.12 51.032 5.12C53.016 5.12 54.512 5.808 55.52 7.184V5.408H57.248V16.256C57.248 18.08 56.648 19.472 55.448 20.432C54.28 21.408 52.784 21.896 50.96 21.896C49.2 21.896 47.704 21.544 46.472 20.84V19.16C47.784 19.944 49.224 20.336 50.792 20.336C52.232 20.336 53.376 19.992 54.224 19.304C55.088 18.616 55.52 17.6 55.52 16.256ZM55.52 12.992V9.224C55.2 8.472 54.664 7.864 53.912 7.4C53.16 6.92 52.336 6.68 51.44 6.68C50.16 6.68 49.096 7.104 48.248 7.952C47.4 8.8 46.976 9.856 46.976 11.12C46.976 12.384 47.4 13.44 48.248 14.288C49.08 15.12 50.144 15.536 51.44 15.536C52.336 15.536 53.16 15.304 53.912 14.84C54.664 14.36 55.2 13.744 55.52 12.992Z" fill="#2589FF"/>
</svg>
