<svg width="32" height="32" viewBox="0 0 32 32" fill="none" xmlns="http://www.w3.org/2000/svg">
<path d="M30.2318 0.000999451H1.76613C0.791385 0.000999451 0 0.790804 0 1.76713V30.2328C0 31.2091 0.791385 31.9999 1.76613 31.9999H17.0912V19.6081H12.9214V14.7781H17.0912V11.2163C17.0912 7.08395 19.6144 4.83256 23.3016 4.83256C25.0693 4.83256 26.5852 4.96481 27.0272 5.02224V9.34167L24.4697 9.34272C22.4649 9.34272 22.0782 10.2959 22.0782 11.6937V14.7765H26.8613L26.2358 19.606H22.0777V31.9984H30.2312C31.207 31.9984 31.9989 31.2065 31.9989 30.2328V1.76607C31.9984 0.790804 31.2076 0.000999451 30.2318 0.000999451Z" fill="#1B2A30"/>
</svg>
