<svg width="81" height="18" viewBox="0 0 81 18" fill="none" xmlns="http://www.w3.org/2000/svg">
<mask id="mask0" mask-type="alpha" maskUnits="userSpaceOnUse" x="0" y="0" width="81" height="18">
<path fill-rule="evenodd" clip-rule="evenodd" d="M0 0H81V18H0V0Z" fill="white"/>
</mask>
<g mask="url(#mask0)">
<path fill-rule="evenodd" clip-rule="evenodd" d="M5.45655 8.65227C7.37769 8.65227 8.60744 8.32922 9.50431 7.6081C10.2982 6.96162 10.6824 6.09161 10.6824 5.02256C10.6824 3.70472 10.0935 2.80983 9.17143 2.21311C8.17202 1.56663 6.94266 1.39286 4.86771 1.39286H1.56341L1.56301 8.65227H5.45655ZM0.000394402 0L4.96986 0.000382759C7.12172 0.000382759 8.78689 0.249176 10.0935 1.06981C11.3485 1.86518 12.245 3.15776 12.245 4.94792C12.2454 6.58881 11.4767 7.93115 10.2982 8.7514C9.45304 9.3485 8.45402 9.64667 7.30118 9.82083L13.5 17.9996L11.6045 18L5.55871 9.94484H1.56302L1.56262 17.9996H0L0.000394402 0Z" fill="#1B2A30"/>
<path fill-rule="evenodd" clip-rule="evenodd" d="M31.5003 5.625H32.625L32.6247 18H31.5L31.5003 5.625Z" fill="#1B2A30"/>
<path fill-rule="evenodd" clip-rule="evenodd" d="M37.434 15.4479C38.7997 16.2664 40.5514 16.7 42.2258 16.7C44.3642 16.7 45.73 16.0017 45.7304 14.5813C45.73 12.7998 43.6173 12.607 41.6339 12.3179C39.5213 12.0051 37.125 11.4272 37.125 9.01965C37.1254 6.7804 39.1603 5.625 42.0461 5.625C43.6946 5.625 45.3698 6.01013 46.6066 6.6362L46.6062 8.12891C45.2667 7.33456 43.5661 6.92533 41.9949 6.92533C40.0108 6.92533 38.6454 7.57512 38.645 8.92364C38.6454 10.5846 40.7065 10.7533 42.6125 11.0424C44.9057 11.3794 47.25 11.9569 47.25 14.4608C47.25 16.7964 45.2147 18 42.1488 18C40.4741 18 38.722 17.6386 37.434 16.9647V15.4479Z" fill="#1B2A30"/>
<path fill-rule="evenodd" clip-rule="evenodd" d="M51.9421 13.6691L51.9425 7.08865H49.5L49.5004 5.83038H51.9425V2.49175L53.4128 2.25V5.83075H57.375V7.08865H53.4128V13.4273C53.4128 15.2175 53.6863 16.6933 55.6304 16.6937C56.2781 16.6933 56.9012 16.5242 57.375 16.2579L57.3746 17.613C56.9012 17.8305 56.1787 18 55.4309 18C54.5339 18 53.5121 17.7579 52.8142 16.9835C52.1911 16.2821 51.9421 15.2175 51.9421 13.6691Z" fill="#1B2A30"/>
<path fill-rule="evenodd" clip-rule="evenodd" d="M67.4638 15.3326V12.6656C66.5442 12.4015 65.48 12.2331 64.5119 12.2331C62.8186 12.2331 61.0766 12.7614 61.0769 14.5158C61.0766 16.0537 62.407 16.7262 63.8586 16.7266C65.2137 16.7266 66.52 16.1499 67.4638 15.3326ZM60.8587 17.1828C60.0846 16.6064 59.625 15.7414 59.625 14.636C59.625 13.3863 60.2057 12.4973 61.125 11.8965C62.0204 11.3201 63.2299 11.104 64.3912 11.1037C65.48 11.1037 66.4715 11.272 67.4638 11.5365V10.1669C67.4638 9.01342 67.2459 8.2687 66.593 7.69194C66.0361 7.21137 65.2141 6.94685 64.1491 6.94685C62.7464 6.94685 61.4639 7.40337 60.4962 8.10037V6.6827C61.4639 6.08152 62.7944 5.62537 64.2948 5.625C65.7221 5.62537 66.8831 5.98571 67.6817 6.65865C68.4796 7.3316 68.8912 8.38856 68.8912 9.83065V14.9486C68.8908 15.9578 69.1325 16.7029 70.1006 16.7026C70.3908 16.7026 70.6571 16.6308 70.875 16.5106L70.8746 17.7362C70.6087 17.8561 70.2459 17.9282 69.8343 17.9282C68.8182 17.9282 68.0199 17.4477 67.6814 16.5342H67.6329C66.7379 17.3034 65.2863 18 63.6653 18C62.6492 18 61.633 17.7599 60.8587 17.1828Z" fill="#1B2A30"/>
<path fill-rule="evenodd" clip-rule="evenodd" d="M75.5671 13.6694L75.5675 7.08865H73.125L73.1254 5.83075H75.5675V2.49212L77.0378 2.25V5.83075H81V7.08865H77.0378V13.4273C77.0378 15.2179 77.3113 16.6937 79.2554 16.6937C79.9031 16.6937 80.5262 16.5242 81 16.2582L80.9996 17.613C80.5262 17.8309 79.8037 18 79.0559 18C78.1589 18 77.1371 17.7583 76.4392 16.9838C75.8161 16.2824 75.5671 15.2179 75.5671 13.6694Z" fill="#1B2A30"/>
<path fill-rule="evenodd" clip-rule="evenodd" d="M23.8341 10.0527C24.1789 10.5483 24.3807 11.154 24.3807 11.8127C24.3807 13.4981 23.0752 14.8463 21.3752 14.8463C19.6756 14.8463 18.3697 13.4978 18.3697 11.8127C18.3697 10.1276 19.6756 8.77908 21.3756 8.77908C22.1338 8.77908 22.8123 9.04893 23.3327 9.49596L25.542 6.88159C24.4121 6.08983 22.9792 5.62537 21.3756 5.625C17.5076 5.625 14.6254 8.32166 14.625 11.8127C14.625 15.3037 17.5076 18 21.3752 18C25.2428 18.0004 28.125 15.3041 28.125 11.8131C28.125 10.3626 27.6266 9.05078 26.7679 8.01104L23.8341 10.0527Z" fill="#26A4F0"/>
<path fill-rule="evenodd" clip-rule="evenodd" d="M31.9927 3.375L34.875 1.20206C34.5299 0.749167 34.1255 0.345193 33.6705 0L31.5 2.78206C31.6867 2.95564 31.8514 3.15526 31.9927 3.375Z" fill="#26A4F0"/>
</g>
</svg>
