<svg width="59" height="48" viewBox="0 0 59 48" fill="none" xmlns="http://www.w3.org/2000/svg">
<path d="M18.2996 15.9658L10.3275 14.009C8.98673 13.6829 6.84876 13.1393 6.84876 10.6028C6.84876 7.66758 9.96513 6.68918 12.5742 6.68918C18.517 6.68918 19.0606 10.1679 19.2418 11.6536H23.0466V17.7414C21.6696 16.9442 20.0027 16.4007 18.2996 15.9658ZM13.9874 35.4612C15.6905 35.4612 19.894 35.1713 23.0466 32.8522V34.5915H29.3881V26.9456L32.0334 24.1916L37.795 34.5915H45.4047L36.6717 19.7344L45.1873 10.3491H37.3964L29.3881 19.5533V1.86968H23.0466V4.65992C21.0898 2.59442 17.9735 1 13.0815 1C2.50034 1 0.507316 7.45016 0.507316 11.0376C0.507316 16.002 3.1526 18.756 7.79092 19.8794L14.386 21.51C17.8648 22.3797 20.3289 22.9958 20.3289 25.5686C20.3289 29.0111 16.7052 29.8083 13.4801 29.8083C7.53726 29.8083 6.52263 26.3295 6.52263 24.4815H0C0 28.54 2.0655 35.425 13.9512 35.425L13.9874 35.4612Z" fill="#6C6E6E"/>
<path d="M2.02863 44.5573C2.02863 45.1371 2.35476 46.2242 4.20284 46.2242C5.21747 46.2242 6.34081 45.9706 6.34081 44.8835C6.34081 44.0862 5.57984 43.8688 4.49273 43.6152L2.42724 43.1078C0.977762 42.7455 0.144315 41.912 0.144315 40.3539C0.144315 39.2305 0.760341 37.2012 4.09413 37.2012C7.2105 37.2012 8.08018 39.2667 8.08018 40.4988H6.05092C5.97845 40.0277 5.8335 38.9406 3.94918 38.9406C3.11574 38.9406 2.17358 39.2667 2.17358 40.1727C2.17358 40.9699 2.82584 41.1511 3.26068 41.2598L5.76102 41.8758C7.17426 42.2382 8.44255 42.7817 8.44255 44.6298C8.44255 47.7099 5.32618 47.9998 4.42026 47.9998C0.687867 47.9998 0.0356045 45.8256 0.0356045 44.5573H2.06487H2.02863Z" fill="#6C6E6E"/>
<path d="M11.0515 42.9937L13.5881 40.131H16.0159L13.3344 43.03L16.0884 47.7045H13.6968L11.8849 44.4432L11.0515 45.3129V47.7045H9.09469V37.4495H11.0515V42.9937Z" fill="#6C6E6E"/>
<path d="M17.9724 43.9037C17.9724 44.8821 18.2623 46.2229 19.8205 46.2229C21.3425 46.2229 21.6324 44.8821 21.6324 43.9037C21.6324 42.9253 21.3425 41.5846 19.8205 41.5846C18.2986 41.5846 17.9724 42.9253 17.9724 43.8675V43.9037ZM23.6616 43.9037C23.6616 46.6577 21.8135 47.8898 19.7843 47.8898C17.755 47.8898 15.9069 46.6215 15.9069 43.9037C15.9069 41.186 17.755 39.9177 19.7843 39.9177C21.8135 39.9177 23.6616 41.1497 23.6616 43.9037Z" fill="#6C6E6E"/>
<path d="M24.3197 47.7045H26.3127V37.4495H24.3197V47.7045Z" fill="#6C6E6E"/>
<path d="M29.2769 42.9937L31.7772 40.131H34.2051L31.5598 43.03L34.2775 47.7045H31.9222L30.1103 44.4432L29.2769 45.3129V47.7045H27.2838V37.4495H29.2769V42.9937Z" fill="#6C6E6E"/>
<path d="M36.2049 43.9037C36.2049 44.8821 36.4948 46.2229 38.053 46.2229C39.5749 46.2229 39.8648 44.8821 39.8648 43.9037C39.8648 42.9253 39.5749 41.5846 38.053 41.5846C36.531 41.5846 36.2049 42.9253 36.2049 43.8675V43.9037ZM41.8941 43.9037C41.8941 46.6577 40.046 47.8898 38.0167 47.8898C35.9875 47.8898 34.1394 46.6215 34.1394 43.9037C34.1394 41.186 35.9875 39.9177 38.0167 39.9177C40.046 39.9177 41.8941 41.1497 41.8941 43.9037Z" fill="#6C6E6E"/>
<path d="M43.9924 40.1306L45.5869 45.711H45.6231L47.29 40.1306H49.428L46.674 47.7041H44.5722L41.8545 40.1306H43.9924Z" fill="#6C6E6E"/>
<path d="M51.4222 43.9037C51.4222 44.8821 51.712 46.2229 53.2702 46.2229C54.7922 46.2229 55.0821 44.8821 55.0821 43.9037C55.0821 42.9253 54.7922 41.5846 53.2702 41.5846C51.7483 41.5846 51.4222 42.9253 51.4222 43.8675V43.9037ZM57.1113 43.9037C57.1113 46.6577 55.2633 47.8898 53.234 47.8898C51.2047 47.8898 49.3567 46.6215 49.3567 43.9037C49.3567 41.186 51.2047 39.9177 53.234 39.9177C55.2633 39.9177 57.1113 41.1497 57.1113 43.9037Z" fill="#6C6E6E"/>
</svg>
