<svg width="32" height="32" viewBox="0 0 32 32" fill="none" xmlns="http://www.w3.org/2000/svg">
<path fill-rule="evenodd" clip-rule="evenodd" d="M2 0C0.895431 0 0 0.895431 0 2V30C0 31.1046 0.895431 32 2 32H30C31.1046 32 32 31.1046 32 30V2C32 0.895431 31.1046 0 30 0H2ZM23.6375 10.4462C24.4637 10.3412 25.2563 10.125 26 9.79875C25.4425 10.6287 24.7588 11.35 23.945 11.9275C23.9538 12.1012 23.96 12.2762 23.96 12.4575C23.96 17.875 19.835 24.125 12.29 24.125C9.96875 24.125 7.81625 23.4562 6 22.285C6.3225 22.3263 6.645 22.3412 6.98125 22.3412C8.89875 22.3412 10.67 21.6838 12.065 20.5925C10.2725 20.5537 8.765 19.36 8.23375 17.7362C8.4825 17.7913 8.7475 17.8062 9.01 17.8062C9.3875 17.8062 9.75125 17.7625 10.085 17.6712C8.22125 17.29 6.8 15.635 6.8 13.6425V13.5975C7.3475 13.8988 7.99375 14.09 8.6525 14.1025C7.5625 13.3737 6.83125 12.115 6.83125 10.695C6.83125 9.93875 7.03875 9.23625 7.3925 8.6225C9.41875 11.1112 12.435 12.745 15.8438 12.9113C15.7762 12.6137 15.7487 12.3013 15.7487 11.9762C15.7487 9.7175 17.5763 7.875 19.8462 7.875C21.0162 7.875 22.0887 8.37125 22.8412 9.1725C23.7738 8.98625 24.6488 8.6525 25.4412 8.18C25.1363 9.14125 24.4875 9.93875 23.6375 10.4462Z" fill="#1B2A30"/>
</svg>
