<svg width="32" height="32" viewBox="0 0 32 32" fill="none" xmlns="http://www.w3.org/2000/svg">
<path fill-rule="evenodd" clip-rule="evenodd" d="M2 0C0.895431 0 0 0.895431 0 2V30C0 31.1046 0.895431 32 2 32H30C31.1046 32 32 31.1046 32 30V2C32 0.895431 31.1046 0 30 0H2ZM25.6403 10.2856C26.3589 10.2856 26.5097 10.6462 26.3589 11.1369H26.3587C26.0567 12.4862 23.1624 16.4608 23.1624 16.4608C22.9106 16.8532 22.8101 17.0496 23.1624 17.4911C23.2865 17.6606 23.5514 17.9135 23.8544 18.2028C24.1658 18.5002 24.5177 18.8362 24.7983 19.1595C25.8188 20.2785 26.5877 21.2227 26.8019 21.8734C26.9978 22.5263 26.6584 22.8571 25.9796 22.8571H23.6041C22.9679 22.8571 22.6475 22.5097 21.9552 21.759C21.6617 21.4407 21.3014 21.05 20.8219 20.5825C19.4125 19.2576 18.8083 19.086 18.456 19.086C17.978 19.086 17.8349 19.218 17.8349 19.8797V21.9564C17.8349 22.5263 17.6481 22.8571 16.1381 22.8571C13.6214 22.8571 10.8555 21.3675 8.89255 18.6197C5.94806 14.5963 5.14257 11.554 5.14257 10.9405C5.14257 10.5971 5.27833 10.2856 5.95711 10.2856H8.33287C8.9399 10.2856 9.16827 10.5447 9.39598 11.1858C10.5578 14.4852 12.5168 17.3685 13.3221 17.3685C13.6242 17.3685 13.7627 17.233 13.7627 16.4852V13.075C13.7081 12.1042 13.3603 11.6844 13.1027 11.3735C12.9436 11.1815 12.8189 11.031 12.8189 10.8178C12.8189 10.5588 13.0458 10.2856 13.4233 10.2856H17.1563C17.6597 10.2856 17.8349 10.5481 17.8349 11.1369V15.7247C17.8349 16.2153 18.0536 16.3871 18.2045 16.3871C18.5066 16.3871 18.7582 16.2155 19.3119 15.6757C21.0233 13.8111 22.2314 10.9405 22.2314 10.9405C22.3825 10.5971 22.6608 10.2856 23.2649 10.2856H25.6403Z" fill="#1B2A30"/>
</svg>
